<?xml version="1.0" encoding="utf-8"?>
<!-- Generator: Adobe Illustrator 23.0.1, SVG Export Plug-In . SVG Version: 6.00 Build 0)  -->
<svg version="1.1" id="Layer_1" xmlns="http://www.w3.org/2000/svg" xmlns:xlink="http://www.w3.org/1999/xlink" x="0px" y="0px"
	 viewBox="0 0 24 24" style="enable-background:new 0 0 24 24;" xml:space="preserve">
<style type="text/css">
	.st0{display:none;fill:#FF7A55;}
	.st1{display:none;fill:#110638;}
	.st2{fill:url(#SVGID_1_);}
	.st3{fill:url(#SVGID_2_);}
	.st4{fill:url(#SVGID_3_);}
	.st5{fill:url(#SVGID_4_);}
	.st6{fill:url(#SVGID_5_);}
	.st7{fill:url(#SVGID_6_);}
	.st8{fill:url(#SVGID_7_);}
	.st9{fill:url(#SVGID_8_);}
	.st10{fill:url(#SVGID_9_);}
	.st11{fill:url(#SVGID_10_);}
	.st12{fill:url(#SVGID_11_);}
	.st13{fill:url(#SVGID_12_);}
</style>
<path class="st0" d="M12,24c-0.2,0-0.3-0.1-0.4-0.2L5,14.6c-0.1-0.2-0.1-0.5,0-0.6c0.2-0.2,0.4-0.2,0.6-0.1l6.4,4l6.4-4
	c0.2-0.1,0.5-0.1,0.6,0.1c0.2,0.2,0.2,0.4,0,0.6l-6.6,9.2C12.3,23.9,12.2,24,12,24z"/>
<path class="st1" d="M12,16.4c-0.1,0-0.2,0-0.3-0.1l-6.6-4.2c-0.2-0.1-0.3-0.4-0.2-0.7l6.6-11.2C11.7,0.1,11.8,0,12,0l0,0
	c0.2,0,0.3,0.1,0.4,0.2L19,11.4c0.1,0.2,0.1,0.5-0.2,0.7l-6.6,4.2C12.2,16.4,12.1,16.4,12,16.4z M6.1,11.6l5.9,3.7l5.9-3.7L12,1.5
	L6.1,11.6z"/>
<g>
	<linearGradient id="SVGID_1_" gradientUnits="userSpaceOnUse" x1="5.5614" y1="8.0069" x2="8.1166" y2="15.3216">
		<stop  offset="9.326420e-02" style="stop-color:#007FE5"/>
		<stop  offset="0.5233" style="stop-color:#81E1FF"/>
		<stop  offset="0.9482" style="stop-color:#007FE5"/>
	</linearGradient>
	<path class="st2" d="M10.7,10c0,0-2.9-0.8-5.1,0.1c0,0,0,0,0,0c0,0,0,0-0.1,0c-0.6,0.3-1.1,0.7-1.4,1.1c0,0,0,0,0,0
		c-0.6,0.8-0.7,1.6-0.7,1.6c0.7-1.1,2-1.5,2-1.5c-0.7,0.7-1.2,1.4-1.5,1.9c0,0,0,0,0,0c0,0,0,0,0,0c0,0,0,0.1,0,0.1c0,0,0,0,0,0
		c0,0,0,0.1,0,0.1c0,0,0,0,0,0c0,0,0,0,0,0c0,0,0,0,0,0c-0.5,1.3-0.1,2.1-0.1,2.1C4.2,14.4,5.2,14,5.2,14l0.3-0.6
		c0.4-0.6,1.1-1.5,2.3-2c-0.2,0-0.2,0.1-0.2,0.1C9.4,9.9,10.7,10,10.7,10z"/>
	<linearGradient id="SVGID_2_" gradientUnits="userSpaceOnUse" x1="11.1602" y1="1.2438" x2="17.8945" y2="20.5215">
		<stop  offset="9.326420e-02" style="stop-color:#007FE5"/>
		<stop  offset="0.5233" style="stop-color:#81E1FF"/>
		<stop  offset="0.9482" style="stop-color:#007FE5"/>
	</linearGradient>
	<path class="st3" d="M18.8,10c0,0,0.1,1.3-2.9,1.9c-3,0.6-4.6,3.5-2,7.4c0,0-3.6-3-1.8-5.8C14.2,10.3,18.1,12.2,18.8,10z"/>
	<linearGradient id="SVGID_3_" gradientUnits="userSpaceOnUse" x1="14.518" y1="-0.2099" x2="21.4182" y2="19.5425">
		<stop  offset="9.326420e-02" style="stop-color:#007FE5"/>
		<stop  offset="0.5233" style="stop-color:#81E1FF"/>
		<stop  offset="0.9482" style="stop-color:#007FE5"/>
	</linearGradient>
	<path class="st4" d="M17.3,6.8c0,0,0.8-0.1,1.7-0.1c0.8,0,1.1,0.2,0.9,0.5c-0.2,0.3-0.4,0.6-0.4,1c0,0.3-0.4,1.8-1.4,2
		c-1,0.2-1.3-0.2-1.9,0c-0.4,0.1-0.7,0.4-0.7,0.4s0.4-0.8,1.3-0.7c0.9,0.1,1.3,0.2,1.9-0.6c0.5-0.8,0.6-1.4,0.3-1.8
		C18.5,7.1,17.3,6.8,17.3,6.8z"/>
	<linearGradient id="SVGID_4_" gradientUnits="userSpaceOnUse" x1="11.3042" y1="1.1935" x2="18.0385" y2="20.4712">
		<stop  offset="9.326420e-02" style="stop-color:#007FE5"/>
		<stop  offset="0.5233" style="stop-color:#81E1FF"/>
		<stop  offset="0.9482" style="stop-color:#007FE5"/>
	</linearGradient>
	<path class="st5" d="M12.7,7.5l0.9-0.2c0,0,0.4,0.2,0.8,0.2l-1,0.2L12.7,7.5z"/>
	<linearGradient id="SVGID_5_" gradientUnits="userSpaceOnUse" x1="2.7958" y1="-5.1473" x2="20.1501" y2="44.5308">
		<stop  offset="9.326420e-02" style="stop-color:#007FE5"/>
		<stop  offset="0.5233" style="stop-color:#81E1FF"/>
		<stop  offset="0.9482" style="stop-color:#007FE5"/>
	</linearGradient>
	<path class="st6" d="M11.3,12c-0.9,0.4-1.6,0.9-2.1,1.5l-0.9,1.1l0,0C6.7,19.5,12,21,12,21l0,0C6.3,16.5,11.3,12,11.3,12z"/>
	<linearGradient id="SVGID_6_" gradientUnits="userSpaceOnUse" x1="16.2972" y1="6.685837e-03" x2="5.2961" y2="19.3871">
		<stop  offset="9.326420e-02" style="stop-color:#007FE5"/>
		<stop  offset="0.5233" style="stop-color:#81E1FF"/>
		<stop  offset="0.9482" style="stop-color:#007FE5"/>
	</linearGradient>
	<path class="st7" d="M12,1.8L1.9,4.6V5c0,0.1,0,3.2,1.2,6.8c0.1,0.3,0.2,0.7,0.4,1c0,0,0-0.7,0.6-1.4C3.3,8.8,3.1,6.4,3,5.5l9-2.6
		l9,2.6c0,0.9-0.3,3.4-1.2,6.1C18.3,16,15.7,19.2,12,21c-0.1-0.1-0.1-0.1-0.2-0.2c0.1,0.1,0.1,0.1,0.2,0.2l0,0c0,0-5.3-1.5-3.6-6.4
		l0.9-1.1c-0.8,0.8-1.2,1.6-1.4,2.3c-0.2,0.9-0.2,1.7,0,2.4c0,0.1,0.8,2,2.5,3.1c0,0,0,0,0,0c0,0,0,0,0,0c0.5,0.3,1,0.6,1.5,0.8
		l0.2,0.1l0.2-0.1c2.3-1.1,4.2-2.6,5.7-4.6c1.2-1.6,2.2-3.5,2.9-5.6c1.2-3.6,1.2-6.7,1.2-6.8V4.6L12,1.8z"/>
	<linearGradient id="SVGID_7_" gradientUnits="userSpaceOnUse" x1="6.2758" y1="7.2588" x2="7.8374" y2="11.729">
		<stop  offset="9.326420e-02" style="stop-color:#007FE5"/>
		<stop  offset="0.5233" style="stop-color:#81E1FF"/>
		<stop  offset="0.9482" style="stop-color:#007FE5"/>
	</linearGradient>
	<path class="st8" d="M5.8,10.1c0,0-0.1,0-0.1,0.1c2.2-0.9,5.1-0.1,5.1-0.1c-1.5-0.9-3-0.8-3-0.8l2.2-0.6C6.7,6.8,4,10.6,4,10.6
		S5,9.9,5.8,10.1z"/>
	<linearGradient id="SVGID_8_" gradientUnits="userSpaceOnUse" x1="8.2303" y1="-3.6976" x2="8.2688" y2="10.0666">
		<stop  offset="9.326420e-02" style="stop-color:#007FE5"/>
		<stop  offset="0.5233" style="stop-color:#81E1FF"/>
		<stop  offset="0.9482" style="stop-color:#007FE5"/>
	</linearGradient>
	<path class="st9" d="M10.1,6.5L9.5,3.7l-1.1,2L8.8,7L7.5,4.2C5.7,6.3,6.7,8,6.7,8s0.2,0,0.5,0c0.6,0,1.7,0.1,2.7,0.7
		c0,0,0,0-0.1-0.1C9.5,8.4,7.6,7.1,10.1,6.5z"/>
	<linearGradient id="SVGID_9_" gradientUnits="userSpaceOnUse" x1="10.1433" y1="-0.6623" x2="19.7019" y2="26.6999">
		<stop  offset="9.326420e-02" style="stop-color:#007FE5"/>
		<stop  offset="0.5233" style="stop-color:#81E1FF"/>
		<stop  offset="0.9482" style="stop-color:#007FE5"/>
	</linearGradient>
	<path class="st10" d="M13.1,6c-0.9,0.2-2.1,0.4-3,0.5l0,0c0,0-0.1,0-0.1,0l0,0C9.7,6.6,9.4,6.7,9.2,6.8c0,0,0,0,0,0c0,0,0,0,0,0
		c0,0,0,0-0.1,0c0,0,0,0,0,0c0,0,0,0,0,0c0,0,0,0,0,0c0,0,0,0,0,0c0,0,0,0,0,0c0,0,0,0,0,0c0,0,0,0,0,0c0,0,0,0,0,0.1c0,0,0,0,0,0
		c0,0,0,0,0,0c0,0,0,0,0,0c0,0,0,0,0,0.1c0,0,0,0,0,0c0,0,0,0,0,0c0,0,0,0,0,0c0,0,0,0,0,0.1c0,0,0,0,0,0c0,0,0,0,0,0c0,0,0,0,0,0
		c0,0,0,0,0,0.1c0,0,0,0,0,0c0,0,0,0,0,0c0,0,0,0,0,0c0,0,0,0,0,0.1c0,0,0,0,0,0c0,0,0,0,0,0c0,0,0,0,0,0c0,0,0,0,0,0.1c0,0,0,0,0,0
		c0,0,0,0,0,0c0,0,0,0,0,0c0,0,0,0,0,0.1c0,0,0,0,0,0c0,0,0,0,0,0c0,0,0,0,0,0c0,0,0,0,0,0.1c0,0,0,0,0,0c0,0,0,0,0,0c0,0,0,0,0,0
		c0,0,0,0,0,0c0,0,0,0,0,0c0,0,0,0,0,0c0,0,0,0,0,0c0,0,0,0,0,0c0,0,0,0,0,0c0.1,0.1,0.3,0.2,0.4,0.3c0,0,0,0,0,0
		c0,0,0.1,0.1,0.1,0.1c0,0.1,0.1,0.1,0.1,0.1c-0.7-1.4,1.9-1.1,1.9-1.1l-1.1-0.3l2.4-0.7c0.7,0.5,1.6,0.7,1.6,0.7
		c1.5,0.2,2.3-0.4,2.3-0.4C14.7,7.5,13.1,6,13.1,6z"/>
	<linearGradient id="SVGID_10_" gradientUnits="userSpaceOnUse" x1="7.1154" y1="3.1477" x2="7.2696" y2="8.4941">
		<stop  offset="9.326420e-02" style="stop-color:#007FE5"/>
		<stop  offset="0.5233" style="stop-color:#81E1FF"/>
		<stop  offset="0.9482" style="stop-color:#007FE5"/>
	</linearGradient>
	<path class="st11" d="M8,8.1C6.9,5.8,7.5,4.2,7.5,4.2C5.7,6.3,6.7,8,6.7,8s0.2,0,0.5,0C7.4,8,7.7,8,8,8.1L8,8.1z"/>
	<linearGradient id="SVGID_11_" gradientUnits="userSpaceOnUse" x1="5.911" y1="9.008" x2="8.0587" y2="15.1558">
		<stop  offset="9.326420e-02" style="stop-color:#007FE5"/>
		<stop  offset="0.5233" style="stop-color:#81E1FF"/>
		<stop  offset="0.9482" style="stop-color:#007FE5"/>
	</linearGradient>
	<path class="st12" d="M5.5,11.4c-2.5,2.5-1.7,4.3-1.7,4.3C4.2,14.4,5.2,14,5.2,14s0.5-1.7,2.3-2.5l0,0c0,0,0,0,0.1-0.1c0,0,0,0,0,0
		c0.1-0.1,0.2-0.1,0.3-0.2c0,0,0,0,0.1,0c0,0,0,0,0,0c1.7-1.2,2.9-1.1,2.9-1.1C8.1,9.2,5.5,11.4,5.5,11.4z"/>
	<linearGradient id="SVGID_12_" gradientUnits="userSpaceOnUse" x1="5.8804" y1="7.7384" x2="10.9271" y2="22.1852">
		<stop  offset="9.326420e-02" style="stop-color:#007FE5"/>
		<stop  offset="0.5233" style="stop-color:#81E1FF"/>
		<stop  offset="0.9482" style="stop-color:#007FE5"/>
	</linearGradient>
	<path class="st13" d="M11.3,11.3c-1.7-0.4-3-0.2-3.5,0c-2,0.8-2.6,2.7-2.6,2.7s-0.4,1.1-0.3,2.2l0,0c0.2,3,2.8,4.8,2.8,4.8
		C3.7,13.8,11.3,11.3,11.3,11.3z"/>
</g>
</svg>
